#Comment line ignore any data following # character 
#Hierarchical Translation and Rotation (.htr) file 
[Header]	
#Header keywords are followed by a single value 
FileType HTR		#Single word string
DataType HTRS		#Translation followed by rotation and scale data
FileVersion 1		#integer
NumSegments 84		#integer
NumFrames 2		#integer
DataFrameRate 30		#integer, data frame rate in this file
EulerRotationOrder ZYX
CalibrationUnits mm
RotationUnits Degrees
GlobalAxisofGravity Y
BoneLengthAxis Y
ScaleFactor 1.00
[SegmentNames&Hierarchy]
#CHILD	PARENT
MASTER GLOBAL
root MASTER
chest root
L_mid_tent01 root
R_mid_tent01 root
spine01 root
Bip01_Neck chest
L_humerus chest
R_humerus chest
weapon_bone chest
Bip01_Head Bip01_Neck
eye_left_bone Bip01_Head
eye_right_bone Bip01_Head
L_forearm L_humerus
L_front_hand L_forearm
L_weapon_bone L_forearm
L_front_hand01_01 L_front_hand
L_front_hand02_01 L_front_hand
L_front_hand03_01 L_front_hand
L_front_hand01_02 L_front_hand01_01
L_front_hand02_02 L_front_hand02_01
L_front_hand03_02 L_front_hand03_01
R_forearm R_humerus
R_front_hand R_forearm
R_weapon_bone R_forearm
R_front_hand01_01 R_front_hand
R_front_hand02_01 R_front_hand
R_front_hand03_01 R_front_hand
R_front_hand01_02 R_front_hand01_01
R_front_hand02_02 R_front_hand02_01
R_front_hand03_02 R_front_hand03_01
null_rope01_connect L_mid_tent01
Rope1_Seg01 null_rope01_connect
Rope1_Seg02 Rope1_Seg01
Rope1_Seg03 Rope1_Seg02
Rope1_Seg04 Rope1_Seg03
Rope1_Seg05 Rope1_Seg04
Rope1_Seg06 Rope1_Seg05
Rope1_Seg07 Rope1_Seg06
Rope1_Seg09 Rope1_Seg07
L_mid_hand01 Rope1_Seg09
L_mid_hand02 Rope1_Seg09
L_mid_hand03 Rope1_Seg09
null_rope02_connect R_mid_tent01
Rope2_Seg01 null_rope02_connect
Rope2_Seg02 Rope2_Seg01
Rope2_Seg03 Rope2_Seg02
Rope2_Seg04 Rope2_Seg03
Rope2_Seg05 Rope2_Seg04
Rope2_Seg06 Rope2_Seg05
Rope2_Seg07 Rope2_Seg06
Rope2_Seg09 Rope2_Seg07
R_mid_hand01 Rope2_Seg09
R_mid_hand02 Rope2_Seg09
R_mid_hand03 Rope2_Seg09
spine02 spine01
spine03 spine02
pelvis spine03
null_rope03_connect pelvis
null_rope04_connect pelvis
Rope3_Seg01 null_rope03_connect
Rope3_Seg02 Rope3_Seg01
Rope3_Seg03 Rope3_Seg02
Rope3_Seg04 Rope3_Seg03
Rope3_Seg05 Rope3_Seg04
Rope3_Seg06 Rope3_Seg05
Rope3_Seg07 Rope3_Seg06
Rope3_Seg08 Rope3_Seg07
Rope3_Seg09 Rope3_Seg08
R_rear_hand01 Rope3_Seg09
R_rear_hand02 Rope3_Seg09
R_rear_hand03 Rope3_Seg09
Rope4_Seg01 null_rope04_connect
Rope4_Seg02 Rope4_Seg01
Rope4_Seg03 Rope4_Seg02
Rope4_Seg04 Rope4_Seg03
Rope4_Seg05 Rope4_Seg04
Rope4_Seg06 Rope4_Seg05
Rope4_Seg07 Rope4_Seg06
Rope4_Seg08 Rope4_Seg07
Rope4_Seg09 Rope4_Seg08
L_rear_hand01 Rope4_Seg09
L_rear_hand02 Rope4_Seg09
L_rear_hand03 Rope4_Seg09
[BasePosition]
#SegmentName Tx, Ty, Tz, Rx, Ry, Rz, BoneLength
MASTER 0.000000 0.000000 0.000000 -90.000000 0.000000 0.000000 10.000000 
root 0.000000 0.000000 0.000000 0.000000 0.000000 0.000000 10.000000 
chest 0.000000 0.000000 0.000000 0.000000 0.000000 0.000000 10.000000 
L_mid_tent01 0.000000 0.000000 0.000000 0.000000 0.000000 0.000000 10.000000 
R_mid_tent01 0.000000 0.000000 0.000000 0.000000 0.000000 0.000000 10.000000 
spine01 0.000000 0.000000 0.000000 0.000000 0.000000 0.000000 10.000000 
Bip01_Neck 0.000000 0.000000 0.000000 0.000000 0.000000 0.000000 10.000000 
L_humerus 0.000000 0.000000 0.000000 0.000000 0.000000 0.000000 10.000000 
R_humerus 0.000000 0.000000 0.000000 0.000000 0.000000 0.000000 10.000000 
weapon_bone 0.000000 0.000000 0.000000 0.000000 0.000000 0.000000 10.000000 
Bip01_Head 0.000000 0.000000 0.000000 0.000000 0.000000 0.000000 10.000000 
eye_left_bone 0.000000 0.000000 0.000000 0.000000 0.000000 0.000000 10.000000 
eye_right_bone 0.000000 0.000000 0.000000 0.000000 0.000000 0.000000 10.000000 
L_forearm 0.000000 0.000000 0.000000 0.000000 0.000000 0.000000 10.000000 
L_front_hand 0.000000 0.000000 0.000000 0.000000 0.000000 0.000000 10.000000 
L_weapon_bone 0.000000 0.000000 0.000000 0.000000 0.000000 0.000000 10.000000 
L_front_hand01_01 0.000000 0.000000 0.000000 0.000000 0.000000 0.000000 10.000000 
L_front_hand02_01 0.000000 0.000000 0.000000 0.000000 0.000000 0.000000 10.000000 
L_front_hand03_01 0.000000 0.000000 0.000000 0.000000 0.000000 0.000000 10.000000 
L_front_hand01_02 0.000000 0.000000 0.000000 0.000000 0.000000 0.000000 10.000000 
L_front_hand02_02 0.000000 0.000000 0.000000 0.000000 0.000000 0.000000 10.000000 
L_front_hand03_02 0.000000 0.000000 0.000000 0.000000 0.000000 0.000000 10.000000 
R_forearm 0.000000 0.000000 0.000000 0.000000 0.000000 0.000000 10.000000 
R_front_hand 0.000000 0.000000 0.000000 0.000000 0.000000 0.000000 10.000000 
R_weapon_bone 0.000000 0.000000 0.000000 0.000000 0.000000 0.000000 10.000000 
R_front_hand01_01 0.000000 0.000000 0.000000 0.000000 0.000000 0.000000 10.000000 
R_front_hand02_01 0.000000 0.000000 0.000000 0.000000 0.000000 0.000000 10.000000 
R_front_hand03_01 0.000000 0.000000 0.000000 0.000000 0.000000 0.000000 10.000000 
R_front_hand01_02 0.000000 0.000000 0.000000 0.000000 0.000000 0.000000 10.000000 
R_front_hand02_02 0.000000 0.000000 0.000000 0.000000 0.000000 0.000000 10.000000 
R_front_hand03_02 0.000000 0.000000 0.000000 0.000000 0.000000 0.000000 10.000000 
null_rope01_connect 0.000000 0.000000 0.000000 0.000000 0.000000 0.000000 10.000000 
Rope1_Seg01 0.000000 0.000000 0.000000 0.000000 0.000000 0.000000 10.000000 
Rope1_Seg02 0.000000 0.000000 0.000000 0.000000 0.000000 0.000000 10.000000 
Rope1_Seg03 0.000000 0.000000 0.000000 0.000000 0.000000 0.000000 10.000000 
Rope1_Seg04 0.000000 0.000000 0.000000 0.000000 0.000000 0.000000 10.000000 
Rope1_Seg05 0.000000 0.000000 0.000000 0.000000 0.000000 0.000000 10.000000 
Rope1_Seg06 0.000000 0.000000 0.000000 0.000000 0.000000 0.000000 10.000000 
Rope1_Seg07 0.000000 0.000000 0.000000 0.000000 0.000000 0.000000 10.000000 
Rope1_Seg09 0.000000 0.000000 0.000000 0.000000 0.000000 0.000000 10.000000 
L_mid_hand01 0.000000 0.000000 0.000000 0.000000 0.000000 0.000000 10.000000 
L_mid_hand02 0.000000 0.000000 0.000000 0.000000 0.000000 0.000000 10.000000 
L_mid_hand03 0.000000 0.000000 0.000000 0.000000 0.000000 0.000000 10.000000 
null_rope02_connect 0.000000 0.000000 0.000000 0.000000 0.000000 0.000000 10.000000 
Rope2_Seg01 0.000000 0.000000 0.000000 0.000000 0.000000 0.000000 10.000000 
Rope2_Seg02 0.000000 0.000000 0.000000 0.000000 0.000000 0.000000 10.000000 
Rope2_Seg03 0.000000 0.000000 0.000000 0.000000 0.000000 0.000000 10.000000 
Rope2_Seg04 0.000000 0.000000 0.000000 0.000000 0.000000 0.000000 10.000000 
Rope2_Seg05 0.000000 0.000000 0.000000 0.000000 0.000000 0.000000 10.000000 
Rope2_Seg06 0.000000 0.000000 0.000000 0.000000 0.000000 0.000000 10.000000 
Rope2_Seg07 0.000000 0.000000 0.000000 0.000000 0.000000 0.000000 10.000000 
Rope2_Seg09 0.000000 0.000000 0.000000 0.000000 0.000000 0.000000 10.000000 
R_mid_hand01 0.000000 0.000000 0.000000 0.000000 0.000000 0.000000 10.000000 
R_mid_hand02 0.000000 0.000000 0.000000 0.000000 0.000000 0.000000 10.000000 
R_mid_hand03 0.000000 0.000000 0.000000 0.000000 0.000000 0.000000 10.000000 
spine02 0.000000 0.000000 0.000000 0.000000 0.000000 0.000000 10.000000 
spine03 0.000000 0.000000 0.000000 0.000000 0.000000 0.000000 10.000000 
pelvis 0.000000 0.000000 0.000000 0.000000 0.000000 0.000000 10.000000 
null_rope03_connect 0.000000 0.000000 0.000000 0.000000 0.000000 0.000000 10.000000 
null_rope04_connect 0.000000 0.000000 0.000000 0.000000 0.000000 0.000000 10.000000 
Rope3_Seg01 0.000000 0.000000 0.000000 0.000000 0.000000 0.000000 10.000000 
Rope3_Seg02 0.000000 0.000000 0.000000 0.000000 0.000000 0.000000 10.000000 
Rope3_Seg03 0.000000 0.000000 0.000000 0.000000 0.000000 0.000000 10.000000 
Rope3_Seg04 0.000000 0.000000 0.000000 0.000000 0.000000 0.000000 10.000000 
Rope3_Seg05 0.000000 0.000000 0.000000 0.000000 0.000000 0.000000 10.000000 
Rope3_Seg06 0.000000 0.000000 0.000000 0.000000 0.000000 0.000000 10.000000 
Rope3_Seg07 0.000000 0.000000 0.000000 0.000000 0.000000 0.000000 10.000000 
Rope3_Seg08 0.000000 0.000000 0.000000 0.000000 0.000000 0.000000 10.000000 
Rope3_Seg09 0.000000 0.000000 0.000000 0.000000 0.000000 0.000000 10.000000 
R_rear_hand01 0.000000 0.000000 0.000000 0.000000 0.000000 0.000000 10.000000 
R_rear_hand02 0.000000 0.000000 0.000000 0.000000 0.000000 0.000000 10.000000 
R_rear_hand03 0.000000 0.000000 0.000000 0.000000 0.000000 0.000000 10.000000 
Rope4_Seg01 0.000000 0.000000 0.000000 0.000000 0.000000 0.000000 10.000000 
Rope4_Seg02 0.000000 0.000000 0.000000 0.000000 0.000000 0.000000 10.000000 
Rope4_Seg03 0.000000 0.000000 0.000000 0.000000 0.000000 0.000000 10.000000 
Rope4_Seg04 0.000000 0.000000 0.000000 0.000000 0.000000 0.000000 10.000000 
Rope4_Seg05 0.000000 0.000000 0.000000 0.000000 0.000000 0.000000 10.000000 
Rope4_Seg06 0.000000 0.000000 0.000000 0.000000 0.000000 0.000000 10.000000 
Rope4_Seg07 0.000000 0.000000 0.000000 0.000000 0.000000 0.000000 10.000000 
Rope4_Seg08 0.000000 0.000000 0.000000 0.000000 0.000000 0.000000 10.000000 
Rope4_Seg09 0.000000 0.000000 0.000000 0.000000 0.000000 0.000000 10.000000 
L_rear_hand01 0.000000 0.000000 0.000000 0.000000 0.000000 0.000000 10.000000 
L_rear_hand02 0.000000 0.000000 0.000000 0.000000 0.000000 0.000000 10.000000 
L_rear_hand03 0.000000 0.000000 0.000000 0.000000 0.000000 0.000000 10.000000 
#Beginning of Data. Separated by tabs
#Fr	Tx	Ty	Tz	Rx	Ry	Rz	SF
[MASTER]
2 0.000000 0.000000 0.000000 0.001660 0.001660 0.001660 0.000000
3 0.000000 0.000000 0.000000 0.001660 0.001660 0.001660 0.000000
[root]
2 -96.190880 -62.822117 1416.776001 -86.047882 -4.452547 -89.830162 1421.426514
3 -100.227173 -62.822117 1353.071899 -86.136513 -4.332894 -89.821846 1358.232544
[chest]
2 -74.728691 64.448845 -72.258682 2.745188 -0.325329 157.379150 122.308418
3 -74.779724 63.934780 -71.881767 2.243907 0.302683 159.545197 121.846832
[L_mid_tent01]
2 26.386341 22.700682 -244.050476 -5.199794 13.546268 -1.967413 246.520172
3 26.456764 22.660337 -244.502975 -2.952924 18.803171 28.872662 246.971970
[R_mid_tent01]
2 23.228794 24.509907 226.238495 -167.701599 -14.682685 1.766667 228.744751
3 23.228794 24.509907 226.238495 -171.727615 -21.139250 30.427362 228.744751
[spine01]
2 -0.361383 -0.195265 0.000000 -0.000001 -0.000007 22.052340 0.410763
3 -0.361383 -0.195265 0.000000 -0.000001 -0.000007 22.052340 0.410763
[Bip01_Neck]
2 165.484543 71.581718 0.000119 175.896118 1.177290 24.871181 180.302734
3 165.484543 71.581718 0.000119 175.896118 1.177290 24.871183 180.302734
[L_humerus]
2 -13.983130 -135.272980 -120.471481 -90.577698 1.193516 -167.164825 181.680161
3 -13.983130 -135.272980 -120.471481 -87.452057 2.325884 -166.774597 181.680161
[R_humerus]
2 -13.983309 -135.273102 125.287651 102.014313 1.072014 -169.172974 184.909012
3 -13.983309 -135.273102 125.287651 98.898445 -0.519051 -169.240479 184.909012
[weapon_bone]
2 235.964890 -300.705902 0.000000 0.000000 -89.951546 -128.212341 382.234833
3 235.964890 -300.705902 0.000000 0.000000 -89.951546 -128.212341 382.234833
[Bip01_Head]
2 173.284088 71.261589 8.759336 5.578762 0.044030 -36.926983 187.569489
3 173.305466 72.933655 8.641844 4.158450 -2.644994 -31.880062 188.225342
[eye_left_bone]
2 -24.626970 125.451866 -64.772606 0.000000 -90.000000 -99.840431 143.318359
3 -24.626970 125.451866 -64.772606 0.000000 -90.000000 -99.840431 143.318359
[eye_right_bone]
2 -24.626970 125.451866 64.327362 0.000000 -89.960434 80.159386 143.117676
3 -24.626970 125.451866 64.327362 0.000000 -89.960434 80.159386 143.117676
[L_forearm]
2 322.776093 0.000000 -0.000119 0.000058 -0.002347 -92.819260 322.776093
3 322.776093 0.000000 -0.000119 0.000145 -0.002343 -97.067619 322.776093
[L_front_hand]
2 241.149185 -0.042021 -3.300071 -177.520187 0.035802 -79.295609 241.171753
3 241.149185 -0.042021 -3.300071 -176.939682 0.273426 -77.316628 241.171753
[L_weapon_bone]
2 156.183838 0.000000 0.000000 0.000014 0.000007 0.000001 156.183838
3 156.183838 0.000000 0.000000 0.000014 0.000007 0.000001 156.183838
[L_front_hand01_01]
2 86.095154 20.947098 -0.655860 0.390447 -0.453791 -2.814313 88.609184
3 86.095154 20.947098 -0.655860 0.392897 -0.453056 -3.017162 88.609184
[L_front_hand02_01]
2 86.935165 -11.437475 24.513514 116.921951 2.019492 0.677653 91.046425
3 86.935165 -11.437475 24.513514 116.926254 2.201380 0.769255 91.046425
[L_front_hand03_01]
2 86.637497 -14.123976 -20.424902 -118.364792 -3.072383 -1.013185 90.126129
3 86.637497 -14.123976 -20.424902 -118.369240 -3.250346 -0.917609 90.126129
[L_front_hand01_02]
2 71.020905 -0.000179 0.000030 0.001534 0.001777 -8.378850 71.020905
3 71.020905 -0.000179 0.000030 0.001534 0.001777 -8.378850 71.020905
[L_front_hand02_02]
2 71.020927 -0.000119 0.000060 0.001534 0.001777 -8.378850 71.020927
3 71.020927 -0.000119 0.000060 0.001534 0.001777 -8.378850 71.020927
[L_front_hand03_02]
2 71.020905 -0.000060 0.000060 0.001534 0.001777 -8.378850 71.020905
3 71.020905 -0.000060 0.000060 0.001534 0.001777 -8.378850 71.020905
[R_forearm]
2 322.776428 -0.000060 0.000030 0.209177 -0.020226 -85.304039 322.776428
3 322.776428 -0.000060 0.000030 0.213327 -0.001175 -89.986206 322.776428
[R_front_hand]
2 238.847015 -0.006795 2.210259 -1.932057 -0.535939 -91.977936 238.857239
3 238.847015 -0.006795 2.210259 -2.635139 -0.843023 -89.797256 238.857239
[R_weapon_bone]
2 155.664093 0.002503 -0.000030 0.003487 0.001180 -90.988930 155.664078
3 155.664093 0.002503 -0.000030 0.003487 0.001180 -90.988930 155.664078
[R_front_hand01_01]
2 87.624611 14.231146 22.918642 -116.928703 2.245190 -0.686272 91.683487
3 87.624611 14.231146 22.918642 -116.930954 2.385314 -0.757053 91.683487
[R_front_hand02_01]
2 89.356956 14.367283 -19.491137 118.376793 -3.020354 1.277464 92.579636
3 89.356956 14.367283 -19.491137 118.381317 -3.159059 1.202624 92.579636
[R_front_hand03_01]
2 87.286232 -22.307278 -0.143439 -0.385225 -0.241146 2.826774 90.091743
3 87.286232 -22.307278 -0.143439 -0.385558 -0.240613 2.985087 90.091743
[R_front_hand01_02]
2 71.020905 0.000060 0.000119 0.001777 0.001534 8.377220 71.020905
3 71.020905 0.000060 0.000119 0.001777 0.001534 8.377220 71.020905
[R_front_hand02_02]
2 71.020844 -0.000030 -0.000119 0.001777 0.001534 8.377220 71.020836
3 71.020844 -0.000030 -0.000119 0.001777 0.001534 8.377220 71.020836
[R_front_hand03_02]
2 71.020905 0.000000 0.000030 0.001777 0.001534 8.377220 71.020905
3 71.020905 0.000000 0.000030 0.001777 0.001534 8.377220 71.020905
[null_rope01_connect]
2 328.732483 0.000000 -0.000238 -89.334457 -76.472366 -175.340103 328.732483
3 328.732483 0.000000 -0.000238 -113.863274 -73.244675 178.328979 328.732483
[Rope1_Seg01]
2 -0.000038 0.000037 0.000148 43.302940 -24.409710 -115.966125 0.000157
3 -0.000037 0.000036 0.000142 110.819931 -52.526989 166.150467 0.000151
[Rope1_Seg02]
2 139.999863 -0.000179 0.000000 21.779732 12.066122 -30.258623 139.999863
3 139.999863 -0.000179 0.000000 34.609940 -34.666256 -85.564255 139.999863
[Rope1_Seg03]
2 139.999924 0.000060 -0.000060 132.544098 12.415437 -32.125088 139.999924
3 139.999924 0.000060 -0.000060 21.044861 -11.113853 -42.219440 139.999924
[Rope1_Seg04]
2 139.999924 -0.000060 -0.000119 132.302261 8.853828 -46.626499 139.999924
3 139.999924 -0.000060 -0.000119 66.890396 15.606215 -59.077011 139.999924
[Rope1_Seg05]
2 139.999832 0.000119 -0.000060 1.038453 -5.021264 4.145302 139.999832
3 139.999832 0.000119 -0.000060 30.574137 -13.386639 -7.099170 139.999832
[Rope1_Seg06]
2 139.999954 0.000119 -0.000060 0.411431 -2.459618 2.115154 139.999954
3 139.999954 0.000119 -0.000060 6.860078 -5.988232 0.282435 139.999954
[Rope1_Seg07]
2 139.999985 0.000060 0.000000 0.197366 -1.256516 1.097519 139.999985
3 139.999985 0.000060 0.000000 2.646416 -2.879114 0.484435 139.999985
[Rope1_Seg09]
2 121.602913 0.000119 -0.000089 -89.793175 -1.359789 0.847147 121.602913
3 121.602913 0.000119 -0.000089 -89.793175 -1.359789 0.847147 121.602913
[L_mid_hand01]
2 103.859421 1.038730 8.195221 105.439651 -21.387253 -6.280531 104.187431
3 103.859421 1.038730 8.195221 104.471321 -7.270756 -2.401986 104.187431
[L_mid_hand02]
2 105.572853 -4.139662 -10.864139 -139.035965 19.244759 -20.192528 106.211075
3 105.572853 -4.139662 -10.864139 -136.266632 9.371327 -9.061437 106.211075
[L_mid_hand03]
2 104.641464 17.579376 -3.913581 -17.550444 6.757150 24.307787 106.179977
3 104.641464 17.579376 -3.913581 -18.643559 2.198806 10.383776 106.179977
[null_rope02_connect]
2 328.732849 0.000179 -0.000119 -135.044952 67.955002 -46.601246 328.732849
3 328.732849 0.000179 -0.000119 -142.723175 64.100945 -25.520704 328.732849
[Rope2_Seg01]
2 0.000090 0.000106 0.000000 -163.357056 73.969963 -49.156254 0.000139
3 0.000084 0.000097 0.000000 -26.509434 60.872284 82.543800 0.000128
[Rope2_Seg02]
2 139.999741 -0.000060 -0.000119 -16.763792 13.850081 26.834860 139.999756
3 139.999741 -0.000060 -0.000119 -0.242179 11.760470 7.006371 139.999756
[Rope2_Seg03]
2 140.000107 0.000030 0.000000 -10.426596 -0.066896 24.712042 140.000107
3 140.000107 0.000030 0.000000 -1.536005 8.509554 8.460954 140.000107
[Rope2_Seg04]
2 139.999802 0.000000 -0.000060 -8.050532 26.184046 2.316182 139.999802
3 139.999802 0.000000 -0.000060 -2.324220 9.462597 6.852112 139.999802
[Rope2_Seg05]
2 139.999985 -0.000060 0.000119 -9.471960 14.576942 2.089798 139.999985
3 139.999985 -0.000060 0.000119 -8.020885 26.137627 3.329445 139.999985
[Rope2_Seg06]
2 139.999893 -0.000030 -0.000119 -6.713079 5.408485 2.511536 139.999893
3 139.999893 -0.000030 -0.000119 -13.668485 17.989105 4.805741 139.999893
[Rope2_Seg07]
2 139.999893 0.000060 -0.000060 -4.838650 3.041929 1.878705 139.999893
3 139.999893 0.000060 -0.000060 -10.826649 7.360047 4.571863 139.999893
[Rope2_Seg09]
2 121.338966 0.000089 -0.000060 33.793236 -1.359788 -0.847141 121.338966
3 121.338966 0.000089 -0.000060 33.793236 -1.359788 -0.847141 121.338966
[R_mid_hand01]
2 104.680779 11.144459 -10.335981 -41.480556 25.508781 28.696920 105.778534
3 104.680779 11.144459 -10.335981 -38.311157 30.486574 35.433712 105.778534
[R_mid_hand02]
2 104.070427 2.443552 8.231699 72.825348 -32.866859 10.055559 104.424065
3 104.070427 2.443552 8.231699 71.040993 -40.238590 13.047499 104.424065
[R_mid_hand03]
2 106.028137 -11.221827 -5.996406 -167.923889 10.284258 -37.136166 106.788818
3 106.028137 -11.221827 -5.996406 -169.409958 11.808044 -44.877159 106.788818
[spine02]
2 129.756927 0.001550 0.000119 -0.005378 -4.128850 -7.773877 129.756927
3 129.756927 0.001550 0.000119 -0.015050 -4.188759 -7.669503 129.756927
[spine03]
2 78.733315 0.066456 -3.731918 0.013671 7.652608 -9.764090 78.821739
3 78.726189 0.067695 -3.801498 0.027484 7.662875 -9.618961 78.817947
[pelvis]
2 169.435242 0.051022 0.000000 0.003906 3.001306 -4.258911 169.435257
3 169.435242 0.051022 0.000000 0.002865 2.961568 -4.164843 169.435257
[null_rope03_connect]
2 -1.257226 -2.466202 137.391083 -51.607826 -82.208496 145.510147 137.418976
3 -1.257226 -2.466202 137.391083 -51.984314 -82.341934 145.433792 137.418976
[null_rope04_connect]
2 -1.259640 -2.480268 -137.844437 -51.607826 -82.208496 145.510147 137.872513
3 -1.259640 -2.480268 -137.844437 -51.984314 -82.341934 145.433792 137.872513
[Rope3_Seg01]
2 0.000000 0.000000 0.000000 -130.612213 3.754867 -103.958145 0.000000
3 0.000000 0.000000 0.000000 -139.413208 20.323538 -104.436867 0.000000
[Rope3_Seg02]
2 139.999924 -0.000119 0.000060 -0.767066 -3.667545 -1.958160 139.999924
3 139.999924 -0.000119 0.000060 1.853544 -2.164304 -9.706744 139.999924
[Rope3_Seg03]
2 139.999924 -0.000119 0.000119 -0.747976 -4.561629 -2.433695 139.999924
3 139.999924 -0.000119 0.000119 1.345010 -2.764676 -11.140408 139.999924
[Rope3_Seg04]
2 139.999924 0.000119 0.000000 -1.177935 -7.377409 -2.232146 139.999924
3 139.999924 0.000119 0.000000 0.629319 -3.327345 -12.813581 139.999924
[Rope3_Seg05]
2 139.999924 -0.000238 0.000060 0.332180 -4.112177 -6.025930 139.999924
3 139.999924 -0.000238 0.000060 0.134229 -1.108520 -2.453004 139.999924
[Rope3_Seg06]
2 139.999893 -0.000119 -0.000060 0.548648 0.605725 -4.190423 139.999893
3 139.999893 -0.000119 -0.000060 0.503414 0.110612 2.222918 139.999893
[Rope3_Seg07]
2 139.999771 0.000060 -0.000119 0.521676 -0.562395 -2.142556 139.999771
3 139.999771 0.000060 -0.000119 0.516731 -0.323623 -0.252035 139.999771
[Rope3_Seg08]
2 139.999985 -0.000060 0.000000 0.530043 -0.368337 -1.276079 139.999985
3 139.999985 -0.000060 0.000000 0.541103 -0.220013 -0.187321 139.999985
[Rope3_Seg09]
2 90.185997 -0.000179 -0.000060 89.793228 -1.359877 -0.847183 90.185997
3 90.185997 -0.000179 -0.000060 89.793228 -1.359877 -0.847183 90.185997
[R_rear_hand01]
2 103.366196 -6.073594 -10.757982 -161.551193 16.666374 -30.088671 104.101845
3 103.366196 -6.073594 -10.757982 -161.551193 16.666374 -30.088671 104.101845
[R_rear_hand02]
2 100.509819 12.039542 -7.992327 -34.280552 19.289745 28.875523 101.543350
3 100.509819 12.039542 -7.992327 -34.280552 19.289745 28.875523 101.543350
[R_rear_hand03]
2 101.539970 5.215704 5.435467 83.366440 -30.933914 7.284830 101.819031
3 101.539970 5.215704 5.435467 83.366440 -30.933914 7.284830 101.819031
[Rope4_Seg01]
2 0.000017 -0.000112 -0.000004 46.860710 3.009968 -87.437538 0.000113
3 0.000016 -0.000109 -0.000008 50.392807 15.356728 -87.715683 0.000111
[Rope4_Seg02]
2 139.999985 0.000060 0.000119 0.633522 -1.775649 -3.411747 139.999985
3 139.999985 0.000060 0.000119 -0.023120 -5.744154 -2.171192 139.999985
[Rope4_Seg03]
2 139.999924 0.000000 -0.000238 0.676386 -2.475728 -4.644536 139.999924
3 139.999924 0.000000 -0.000238 0.295519 -7.580029 -3.760770 139.999924
[Rope4_Seg04]
2 139.999985 0.000000 0.000119 1.310497 -8.301745 -17.145885 139.999985
3 139.999985 0.000000 0.000119 0.957666 -12.756145 -10.445969 139.999985
[Rope4_Seg05]
2 139.999802 -0.000060 -0.000119 0.567329 1.598955 5.402955 139.999802
3 139.999802 -0.000060 -0.000119 2.061106 1.264231 13.665223 139.999802
[Rope4_Seg06]
2 139.999924 0.000000 0.000060 0.527342 9.295367 21.001823 139.999924
3 139.999924 0.000000 0.000060 0.729197 5.789562 14.312737 139.999924
[Rope4_Seg07]
2 139.999802 0.000000 0.000000 -0.902127 2.303407 5.541000 139.999802
3 139.999802 0.000000 0.000000 -0.391984 1.351426 5.241694 139.999802
[Rope4_Seg08]
2 139.999924 0.000000 0.000119 -2.157235 1.124228 2.854888 139.999924
3 139.999924 0.000000 0.000119 -1.888539 0.748832 3.002060 139.999924
[Rope4_Seg09]
2 90.185791 0.000060 0.000060 -135.617828 2.228885 0.850567 90.185791
3 90.185791 0.000060 0.000060 -135.617828 2.228885 0.850567 90.185791
[L_rear_hand01]
2 101.696655 -8.392275 -7.654577 -35.046825 -17.701885 153.543655 102.329041
3 101.696655 -8.392275 -7.654577 -35.059097 -17.673534 153.583908 102.329041
[L_rear_hand02]
2 102.726799 -1.568258 5.773216 83.545853 28.161224 173.081772 102.900848
3 102.726799 -1.568258 5.773216 83.550407 28.113348 173.086334 102.900848
[L_rear_hand03]
2 104.552910 9.721220 -10.420293 -160.783249 -15.764771 -152.663193 105.519653
3 104.552910 9.721220 -10.420293 -160.770248 -15.750208 -152.709641 105.519653
